<svg width="12" height="17" viewBox="0 0 12 17" fill="none" xmlns="http://www.w3.org/2000/svg">
<path fill-rule="evenodd" clip-rule="evenodd" d="M5.57025 5.12074L6.42978 5.11363C6.56219 6.12948 6.5435 15.0825 6.36991 15.6972L5.62966 15.7446C5.46635 15.1026 5.44804 6.12803 5.57025 5.12069V5.12074ZM8.99886 5.10653L9.86382 5.12275C9.89232 6.75825 9.60076 8.85123 9.4778 10.5165C9.40961 11.4396 9.32109 12.3621 9.26022 13.2856C9.21837 13.9208 9.3637 15.7188 8.61364 15.7166C7.90929 15.7146 8.24361 14.6096 8.32217 13.3967C8.38205 12.4722 8.47161 11.5549 8.53941 10.6317C8.65728 9.0251 8.70721 6.61023 8.99886 5.10657V5.10653ZM2.13664 5.13617L3.0015 5.10344L3.80932 15.0289C3.83174 15.6542 3.7359 15.8362 3.06195 15.647C2.76694 15.1364 2.12748 6.38475 2.13659 5.13617H2.13664ZM11.413 3.9752L0.588989 3.98619C0.783489 6.70481 1.07396 9.55481 1.3559 12.2693C1.86088 17.1311 0.944912 16.6949 6.00063 16.6965C10.9384 16.6981 10.216 17.1379 10.6492 12.2622C10.8944 9.5032 11.21 6.72707 11.4129 3.9752H11.413Z" fill="#8C9497"/>
<path fill-rule="evenodd" clip-rule="evenodd" d="M4.37747 1.37359C4.47552 0.643172 4.77034 0.525635 5.52418 0.525635H6.47719C7.23112 0.525635 7.51882 0.634663 7.62239 1.39715L4.37747 1.37354V1.37359ZM3.38761 1.40314C1.20885 1.40276 0.0133064 1.06806 0 3.446L12 3.43571C11.9893 1.05936 10.7716 1.40445 8.61706 1.40445C8.41657 -0.218901 7.57237 0.0113556 6.00071 0.0111219C4.53965 0.0109348 3.5219 -0.171681 3.38766 1.40314H3.38761Z" fill="#8C9497"/>
</svg>
