<svg width="16" height="15" viewBox="0 0 16 15" fill="none" xmlns="http://www.w3.org/2000/svg">
<path fill-rule="evenodd" clip-rule="evenodd" d="M2.36788 10.7559L3.26855 10.7319L3.17584 12.1667L4.58728 12.0606C4.58357 13.4255 4.80639 12.8844 2.12203 14.017L1.48177 13.3118C1.46655 13.2632 1.4112 13.2819 1.38616 13.2632L2.36784 10.7559H2.36788ZM0.486831 14.9412C1.02478 14.938 3.86247 13.7114 4.53001 13.4265C5.46759 13.0264 10.3861 7.71836 11.6347 6.4451C12.4525 5.61122 12.7277 5.55914 12.8796 4.83165C12.1864 4.40133 10.7761 2.81681 10.3511 2.13115C9.92329 2.27992 9.93806 2.25798 9.49581 2.81663C9.18626 3.20763 9.15363 3.26747 8.84113 3.58413C8.35384 4.07781 7.92971 4.56313 7.42479 5.0127C6.93013 5.45312 6.40401 6.09379 6.01456 6.4489L3.84203 8.54383C3.57158 8.79132 3.47945 9.04296 3.21615 9.34192C2.66208 9.97098 2.2575 9.94346 1.91143 10.8866C1.62264 11.6736 0.501069 14.3202 0.486786 14.9412L0.486831 14.9412Z" fill="#787878"/>
<path fill-rule="evenodd" clip-rule="evenodd" d="M13.368 4.54814C13.7938 4.30802 14.7386 3.4019 14.933 2.90423C15.3232 1.90534 14.593 1.30938 14.1865 0.903665C13.7859 0.503844 13.1097 -0.381112 12.1311 0.18257C11.8456 0.347025 11.4738 0.748812 11.3066 0.923645L10.7223 1.69727C10.7104 1.67281 10.676 1.76969 10.6589 1.80906C11.3623 2.34435 11.4737 2.50053 12.0091 3.1332L13.0017 4.28232C13.2667 4.52665 13.061 4.38167 13.368 4.5481V4.54814Z" fill="#787878"/>
<path fill-rule="evenodd" clip-rule="evenodd" d="M1.3862 13.2632C1.41124 13.282 1.46659 13.2633 1.48181 13.3119L2.12207 14.017C4.80648 12.8844 4.58366 13.4255 4.58732 12.0607L3.17588 12.1667L3.26859 10.7319L2.36792 10.756L1.38624 13.2632H1.3862Z" fill="#F6F6F6"/>
</svg>
