<svg width="18" height="19" viewBox="0 0 18 19" fill="none" xmlns="http://www.w3.org/2000/svg">
<path fill-rule="evenodd" clip-rule="evenodd" d="M14.2543 5.91275C14.3049 5.98519 14.2637 6.75849 13.0013 6.75782C10.9444 6.75665 8.12074 6.6821 6.23313 6.76262L9.33186 9.86378L4.95693 9.86602C4.92179 9.87109 4.82413 9.86153 4.67651 9.96978C7.0996 9.92019 9.57503 9.96072 12.0035 9.96072C13.3614 9.96072 14.3724 9.72783 14.3729 11.2813C14.3733 12.4978 14.382 13.7199 14.37 14.9358C14.7199 15.1191 14.9008 15.4443 15.191 15.7624C15.449 16.0454 15.7256 16.2998 16.0016 16.5722C16.248 16.8152 17.5103 18.0012 17.578 18.1824C18.146 17.825 17.9763 16.8291 17.9763 15.8953V3.67762C17.9766 2.43109 18.1273 2.88987 16.3943 1.15687C15.4677 0.230206 15.9387 0.59702 14.3368 0.507751C14.2971 1.39339 14.3292 2.34801 14.3292 3.24124C14.3292 3.97375 14.4003 5.29025 14.2543 5.91275Z" fill="#368B78"/>
<path fill-rule="evenodd" clip-rule="evenodd" d="M3.76016 18.4393L3.75279 11.5967C3.75432 10.6847 3.8027 10.0936 4.6764 9.96971C4.82402 9.86145 4.92168 9.87101 4.95682 9.86594L9.33175 9.8637L6.23302 6.76254C8.12059 6.68202 10.9442 6.75657 13.0012 6.75774C14.2636 6.75841 14.3048 5.98511 14.2542 5.91267C14.0281 6.16423 13.8771 6.53266 13.3856 6.46556C13.2218 6.56255 12.9575 6.53391 12.7519 6.53203C12.5233 6.52996 12.2944 6.53136 12.0657 6.53136C11.6294 6.53136 11.1931 6.52983 10.7567 6.52979L5.39581 6.52988C4.52354 6.53086 3.78278 6.46076 3.7067 5.57736C3.65949 5.51372 3.66402 5.5332 3.62973 5.41848C3.57139 5.22334 3.63202 5.49097 3.60523 5.30089C3.50828 4.61331 3.854 4.40179 3.32054 3.8835C2.8729 3.44856 0.500075 1.16774 0.327955 0.851013C-0.154787 1.19323 0.0380229 2.5363 0.0380229 3.24116L0.037978 16.7679C0.0376638 17.1678 -0.0174504 17.6238 0.17702 17.9354C0.356006 18.2221 0.618023 18.4196 1.03183 18.4469C1.77403 18.4959 3.01194 18.4832 3.76007 18.4393H3.76016Z" fill="#2D7868"/>
<path fill-rule="evenodd" clip-rule="evenodd" d="M5.33717 12.3486L12.791 12.3673L12.7935 12.8542L5.32954 12.8554L5.33717 12.3487V12.3486ZM3.75269 11.5968C4.07543 11.776 4.69851 12.4917 5.00357 12.7967C5.31913 13.1123 5.98763 13.7101 6.20351 14.0259L6.26558 14.0252L11.5264 14.0275L11.5051 14.5149C11.116 14.6694 7.62593 14.511 6.82691 14.5679C7.05415 14.9811 7.51108 15.1971 7.76192 15.5912L11.511 15.6L11.5459 16.0948C11.5047 16.1219 11.5139 16.1328 11.3802 16.1629L8.38528 16.1925C8.77772 16.5024 9.91474 17.7489 10.4222 18.2225C10.7688 18.5459 11.7775 18.3877 12.315 18.3877C12.8498 18.3877 13.8983 18.4455 14.3709 18.354L14.3698 14.9357C14.3818 13.7199 14.373 12.4978 14.3727 11.2813C14.3722 9.72778 13.3612 9.96067 12.0033 9.96067C9.57481 9.96067 7.09939 9.92014 4.6763 9.96973C3.80259 10.0936 3.75421 10.6847 3.75269 11.5968Z" fill="#EAEFEF"/>
<path fill-rule="evenodd" clip-rule="evenodd" d="M9.97407 1.53346C9.95536 0.929893 10.745 1.08532 11.5047 1.08532C12.1857 1.08532 13.0083 0.932945 12.9737 1.52937C13.1627 1.74978 13.036 3.66944 13.0378 4.11498C13.0431 5.39535 12.6885 5.11753 11.4424 5.11753C10.153 5.11753 9.90859 5.36905 9.91263 4.05214C9.91393 3.62191 9.79199 1.74431 9.97407 1.53341V1.53346ZM13.3855 6.46563C13.8771 6.53268 14.028 6.1643 14.2542 5.91274C14.4002 5.29024 14.3291 3.97369 14.3291 3.24119C14.3291 2.34796 14.297 1.39338 14.3367 0.507696L14.3257 0L4.70605 0.000628402L8.46602 3.78645C9.11496 4.43538 9.71825 5.03868 10.3672 5.68766C10.538 5.85843 10.6662 5.98226 10.8346 6.15586C11.1105 6.44045 10.9889 6.43628 11.436 6.42483C11.9606 6.41137 12.9174 6.34252 13.3855 6.46563H13.3855Z" fill="#BCBFBF"/>
<path fill-rule="evenodd" clip-rule="evenodd" d="M3.68384 0.506455L3.70691 5.57736C3.78302 6.46075 4.52374 6.5309 5.39601 6.52987L10.7569 6.52978C11.1932 6.52983 11.6296 6.5314 12.0659 6.53135C12.2945 6.53135 12.5235 6.52996 12.7521 6.53202C12.9577 6.53391 13.222 6.56254 13.3858 6.46556C12.9176 6.34245 11.9608 6.41134 11.4363 6.42476C10.9891 6.43625 11.1108 6.44038 10.8348 6.15579C10.6665 5.98214 10.5383 5.85831 10.3675 5.68759C9.71852 5.0386 9.11523 4.43531 8.46629 3.78637L4.70632 0.000554663L3.6964 6.10352e-05L3.68388 0.506411L3.68384 0.506455Z" fill="#B2B5B5"/>
<path fill-rule="evenodd" clip-rule="evenodd" d="M3.76005 18.4393L14.3705 18.4495L14.3709 18.3539C13.8983 18.4454 12.8498 18.3876 12.315 18.3876C11.7774 18.3876 10.7688 18.5459 10.4222 18.2224C9.91474 17.7488 8.77772 16.5024 8.38528 16.1924L11.3802 16.1628C11.5139 16.1327 11.5047 16.1218 11.5459 16.0947L8.26845 16.108L5.32995 16.1062L5.33466 15.6897C5.47101 15.5539 5.26971 15.631 5.58074 15.5884L7.76188 15.5911C7.51104 15.197 7.0541 14.981 6.82687 14.5678C7.62589 14.5109 11.116 14.6693 11.505 14.5148L6.70192 14.5323L5.33053 14.5327V14.0262L6.20351 14.0258C5.98759 13.71 5.31908 13.1122 5.00357 12.7966C4.69851 12.4916 4.07543 11.776 3.75269 11.5967L3.76005 18.4393Z" fill="#DCE0E0"/>
<path fill-rule="evenodd" clip-rule="evenodd" d="M9.97421 1.53344C9.79217 1.74434 9.91411 3.6219 9.91276 4.05218C9.90873 5.36904 10.1531 5.11757 11.4425 5.11757C12.6887 5.11757 13.0432 5.39538 13.038 4.11501C13.0361 3.66948 13.1628 1.74982 12.9738 1.52941C12.7974 1.57249 12.9672 1.35217 12.3788 1.33826C12.0721 1.33099 11.751 1.34005 11.4425 1.34005C11.143 1.34005 10.8046 1.32511 10.51 1.33933C10.0188 1.36308 10.1258 1.56832 9.97421 1.53344Z" fill="#368C7A"/>
<path fill-rule="evenodd" clip-rule="evenodd" d="M0.328125 0.851035C0.500244 1.16776 2.87302 3.44858 3.32071 3.88352C3.85413 4.40181 3.50845 4.61334 3.60539 5.30092C3.63219 5.49094 3.57155 5.22336 3.6299 5.4185C3.66419 5.53322 3.65966 5.51374 3.70687 5.57738L3.6838 0.506482C2.79269 0.564827 0.733268 0.269689 0.328125 0.851035Z" fill="#368C7A"/>
<path fill-rule="evenodd" clip-rule="evenodd" d="M14.371 18.354L14.3706 18.4495C14.9529 18.4485 15.5353 18.4492 16.1175 18.4492C16.5932 18.4493 17.3677 18.5632 17.5778 18.1822C17.5102 18.0011 16.2478 16.8151 16.0015 16.572C15.7256 16.2997 15.4489 16.0453 15.1908 15.7623C14.9007 15.4441 14.7198 15.119 14.3699 14.9357L14.371 18.354Z" fill="#2D7868"/>
<path fill-rule="evenodd" clip-rule="evenodd" d="M5.32959 12.8553L12.7936 12.8542L12.791 12.3673L5.33722 12.3486L5.32959 12.8553Z" fill="#ADB0B0"/>
<path fill-rule="evenodd" clip-rule="evenodd" d="M6.70196 14.5323L11.5051 14.5148L11.5265 14.0274L6.26562 14.0251L6.70196 14.5323Z" fill="#ACAFAF"/>
<path fill-rule="evenodd" clip-rule="evenodd" d="M8.26847 16.1081L11.5459 16.0948L11.511 15.6L7.76194 15.5912L5.5808 15.5885C5.26977 15.6311 5.47107 15.5539 5.33472 15.6898C5.89537 15.6898 6.45603 15.6902 7.01664 15.6898C7.76212 15.6892 8.00147 15.5802 8.26851 16.1082L8.26847 16.1081Z" fill="#ADB0B0"/>
<path fill-rule="evenodd" clip-rule="evenodd" d="M8.26858 16.1081C8.00154 15.5802 7.76219 15.6892 7.01671 15.6897C6.4561 15.6901 5.89545 15.6897 5.33479 15.6897L5.33008 16.1063L8.26858 16.1081V16.1081Z" fill="#A5A8A8"/>
<path fill-rule="evenodd" clip-rule="evenodd" d="M9.9742 1.53346C10.1258 1.56833 10.0188 1.363 10.51 1.33926C10.8046 1.32503 11.143 1.33997 11.4425 1.33997C11.751 1.33997 12.0721 1.33091 12.3788 1.33818C12.9672 1.35214 12.7974 1.57246 12.9738 1.52933C13.0084 0.932856 12.1858 1.08527 11.5048 1.08527C10.7451 1.08527 9.95549 0.929894 9.9742 1.53341V1.53346Z" fill="#327A6A"/>
<path fill-rule="evenodd" clip-rule="evenodd" d="M6.70196 14.5323L6.26562 14.0251L6.20355 14.0258L5.33057 14.0262V14.5327L6.70196 14.5323Z" fill="#A5A8A8"/>
</svg>
