<?xml version="1.0" encoding="UTF-8"?>
<!DOCTYPE svg PUBLIC "-//W3C//DTD SVG 1.1//EN" "http://www.w3.org/Graphics/SVG/1.1/DTD/svg11.dtd">
<!-- Creator: CorelDRAW 2021.5 -->
<svg xmlns="http://www.w3.org/2000/svg" xml:space="preserve" width="1.27953in" height="1.37795in" version="1.1" style="shape-rendering:geometricPrecision; text-rendering:geometricPrecision; image-rendering:optimizeQuality; fill-rule:evenodd; clip-rule:evenodd"
viewBox="0 0 1279.53 1377.95"
 xmlns:xlink="http://www.w3.org/1999/xlink"
 xmlns:xodm="http://www.corel.com/coreldraw/odm/2003">
 <defs>
  <style type="text/css">
   <![CDATA[
    .str3 {stroke:#16D977;stroke-width:7.87;stroke-miterlimit:2.61313}
    .str0 {stroke:#DEE2E4;stroke-width:7.87;stroke-miterlimit:2.61313}
    .str1 {stroke:#F7C621;stroke-width:7.87;stroke-miterlimit:2.61313}
    .str2 {stroke:#FF4D61;stroke-width:7.87;stroke-miterlimit:2.61313}
    .str4 {stroke:white;stroke-width:7.87;stroke-miterlimit:2.61313}
    .fil3 {fill:#16D977}
    .fil0 {fill:#DEE2E4}
    .fil1 {fill:#F7C621}
    .fil2 {fill:#FF4D61}
    .fil4 {fill:white}
   ]]>
  </style>
 </defs>
 <g id="Слой_x0020_1">
  <metadata id="CorelCorpID_0Corel-Layer"/>
  <g id="_2251606889984">
   <path class="fil0 str0" d="M830.34 115.61l212.07 96.81 -15.14 -5.78 -81.61 46.41 -201.2 -88.06 77.52 -48.51c2.43,-1.52 6.22,-1.84 8.36,-0.87z"/>
   <path class="fil0 str0" d="M277.83 432.1l25.82 -14.95 518.82 -300.37c7.49,-4.34 12.29,1.07 10.67,12.02l-10.99 73.95 -509.31 337.31c-7.17,4.74 122.22,741.98 112.07,737.68l-215.9 -91.66c-2.04,-0.87 3.94,-709.49 7.24,-712.89 12.9,-13.33 55.62,-37.64 61.58,-41.09z"/>
   <rect class="fil1 str1" transform="matrix(1.19721 -0.695054 -0.0165927 1.67026 292.27 515.522)" width="536.46" height="434.13" rx="27.41" ry="27.41"/>
   <rect class="fil2 str2" transform="matrix(1.19721 -0.695054 -0.0165927 1.67026 355.262 543.081)" width="536.46" height="434.13" rx="27.41" ry="27.41"/>
   <rect class="fil3 str3" transform="matrix(1.19721 -0.695054 -0.0165927 1.67026 416.321 569.022)" width="536.46" height="434.13" rx="27.41" ry="27.41"/>
   <rect class="fil4 str4" transform="matrix(0.429033 -0.255258 -0.00666329 0.199425 525.005 665.689)" width="536.46" height="434.13" rx="234.37" ry="234.37"/>
   <rect class="fil4 str4" transform="matrix(0.429033 -0.255258 -0.00666329 0.199425 525.005 823.374)" width="536.46" height="434.13" rx="234.37" ry="234.37"/>
   <rect class="fil4 str4" transform="matrix(0.429033 -0.255258 -0.00666329 0.199425 525.005 981.039)" width="536.46" height="434.13" rx="234.37" ry="234.37"/>
   <rect class="fil4 str4" transform="matrix(0.429033 -0.255258 -0.00666329 0.199425 640.084 912.57)" width="536.46" height="434.13" rx="234.37" ry="234.37"/>
  </g>
 </g>
</svg>
