<?xml version="1.0" encoding="UTF-8"?>
<!DOCTYPE svg PUBLIC "-//W3C//DTD SVG 1.1//EN" "http://www.w3.org/Graphics/SVG/1.1/DTD/svg11.dtd">
<!-- Creator: CorelDRAW 2021.5 -->
<svg xmlns="http://www.w3.org/2000/svg" xml:space="preserve" width="8.09055in" height="2.44094in" version="1.1" style="shape-rendering:geometricPrecision; text-rendering:geometricPrecision; image-rendering:optimizeQuality; fill-rule:evenodd; clip-rule:evenodd"
viewBox="0 0 8090.55 2440.94"
 xmlns:xlink="http://www.w3.org/1999/xlink"
 xmlns:xodm="http://www.corel.com/coreldraw/odm/2003">
 <defs>
  <style type="text/css">
   <![CDATA[
    .fil0 {fill:#42B62F}
    .fil1 {fill:#43B730}
    .fil4 {fill:#4AB439}
    .fil6 {fill:#50B33F}
    .fil13 {fill:#9DE391}
    .fil7 {fill:#C4CED7}
    .fil8 {fill:#C4CED9}
    .fil11 {fill:#C5D0D6}
    .fil2 {fill:#DEE2E4}
    .fil3 {fill:#E3E4E3}
    .fil5 {fill:#E5E5E6}
    .fil12 {fill:#E5FAE3}
    .fil10 {fill:#F1FFED}
    .fil9 {fill:#F3FFF1}
   ]]>
  </style>
 </defs>
 <g id="Слой_x0020_1">
  <metadata id="CorelCorpID_0Corel-Layer"/>
  <g id="_1462285489648">
   <path class="fil0" d="M2651.55 1046.67l-14.92 57.94c-17.97,-13.82 -9.24,0.68 -22.37,-21.45 -18.91,-31.88 -3.76,-6.82 -9.48,-39.15 -8.04,-66.84 -30.04,-179.43 -79.57,-203.77 -76.39,-37.53 -200.44,-10.95 -260.93,19.72 -2.89,31.18 -20.49,559 12.62,590.67 49.38,34.35 177.15,15.28 234.62,1.83l0.21 -218.69c32.24,59.85 20.92,140.23 61.49,210.23l118.72 -1.87 49.39 -222.02c11.57,187.6 -75.91,312.46 249,226.39 12.19,-91.9 18.72,-549.02 -5.52,-606.59 -51.79,-40.76 -177.07,-35.4 -245.99,-4.97 -67.17,29.65 -82.65,137.67 -87.26,211.71z"/>
   <path class="fil1" d="M1326.98 1721.06c5.39,-75.38 26.06,-65.19 86.85,-99.33 37,-20.78 69.69,-40.7 114.18,-67.26 67,-40 165.81,-103.59 226.68,-123.4 8.16,67.91 -20.98,72.05 -70.06,101.05 -82.74,48.89 -288.48,179.04 -357.65,188.94zm0.12 -126.88c4.05,-71.77 19.45,-63.14 84.39,-100.42 77.08,-44.26 292.15,-175.69 344.15,-189.93 7.46,85.22 -56.17,88.3 -187.42,167.28 -57.93,34.86 -169.25,110.96 -241.12,123.07zm-0.51 -136.97c3.69,-59.09 4.6,-55.76 49.48,-81.82 58.35,-33.88 189.44,-118.78 242.79,-130.05 2.2,85.93 -60.03,93.98 -120.51,127.85 -58.56,32.8 -107.37,73.48 -171.75,84.02zm0.45 -126.57c3.02,-85.78 62.44,-92.85 126.81,-127.76 47.67,-25.85 112.56,-71.5 166.11,-84.36 -1.32,84.65 -57.33,88.69 -123.94,126.85 -65.35,37.44 -100.93,71.05 -168.98,85.28zm422.05 -449.93c-32,39.83 -448.66,268.52 -525.91,312.75l-3.02 730.71c73.72,-3.88 252.96,-128.98 316,-165.48 48.76,-28.22 272.4,-165.75 318.17,-174.2 26.3,-149.01 12.88,-579.51 6.67,-748.99 -63.46,14.07 -59.59,27.26 -111.92,45.2z"/>
   <path class="fil0" d="M6594.64 1188.91c0.02,-19.6 0.53,-76.61 6.02,-93.15 13.15,-39.65 18.21,-25.08 47.28,-28.6 5.15,67.43 25.68,208.7 -13.61,256.7 -47.39,-25.11 -39.74,-62.28 -39.68,-134.95zm58.56 -385.15l-2.63 155.02c-417.85,-149.81 -326.87,400.13 -232.38,473.87 70.67,55.15 174.24,44.65 230.02,-22.15l38.74 53.5 211.18 -7.48c12.64,-153.11 2.63,-338.38 2.94,-489.85 0.17,-81.13 22.75,-185.67 -46.69,-206.03 -70.5,-20.68 -158.22,15.93 -201.18,43.12z"/>
   <path class="fil0" d="M3256.46 963.61c-43.17,559.09 149.47,424.06 302.78,395.9 4.17,159.17 -109.44,68.59 -225.31,84.67 -24.77,50.13 -40.89,66.78 -28.06,128.44 136.32,55.41 393.08,57.24 463.77,-67.9 30.65,-54.26 41,-538.41 4.47,-568.49 -70.77,-33.59 -167.14,3.39 -224.65,28.67l-5.56 286.67c-143.53,-53.5 143.8,-455.24 -287.43,-287.95z"/>
   <path class="fil0" d="M4578.02 1412.76c35.4,-291.13 -178.72,-119.5 -230.68,-146.44 -54.03,-62.3 -80.48,-186.51 4.92,-249.24 75.28,-24.86 118.5,29.93 188.06,9.46 41.82,-35.48 71.06,-140.64 10.76,-185.21 -51.89,-38.35 -428.83,-93.01 -502.38,205.35 -104.56,424.19 359.8,498.93 529.32,366.07z"/>
   <path class="fil0" d="M5120.43 1323.86c-27.87,-7.47 -49.19,-9.35 -38.26,-61.94 7.76,-37.34 16.16,-34.68 51.13,-42.62 2.85,47.22 11.31,67.54 -12.87,104.56zm-250.3 -329.4c-0.48,62.33 18.76,84.21 55.85,119.24 77.48,-3.16 191.97,-98.19 204.04,27.98 -140.56,17.37 -326.56,17.96 -296.32,196.39 20.43,120.58 205.75,198.75 307.17,53.37l20.5 71.6c87.62,6.53 141.39,6.36 219.24,-15.07 11.91,-154.35 32.85,-398.51 -70.55,-476.65 -107.39,-81.15 -343.6,-58.24 -439.94,23.13z"/>
   <path class="fil0" d="M7411.12 1301.78c-91.63,34.91 -131.93,-23.76 -221,-27.2 -24.41,41.9 -46.9,84.02 -40.96,148.56 370.54,154.13 623.12,-76.38 471.98,-234.33 -29.65,-30.99 -59.81,-39.91 -103.62,-50.43 -55.01,-13.21 -84.59,-5.66 -105.47,-46.7 54.93,-31.12 113.17,8.4 182.45,12.13 27.87,-36.62 53.34,-72 53.8,-138.76 -119.57,-52.04 -370.39,-76.01 -452.26,35.65 -48.5,66.15 -39.48,165.28 13.54,209.62 75.52,63.16 172.03,19.31 201.56,91.46z"/>
   <path class="fil0" d="M5636.19 968.07c-4.33,36.37 -20.84,458.81 11.78,486.44 59.11,26.97 164.37,11.89 231.09,-7.95 7.29,-91.56 -18.98,-232.11 15.34,-302.85 64.82,-27.4 107.56,12.23 183.77,13.93 23.95,-37.9 77.35,-160.08 22.41,-214.72 -9.97,-12.14 23.01,-10.92 -48.48,-18.67 -65.88,-7.15 -121.17,18.97 -167.76,56.51 -2.59,-2.06 -5.79,-9.5 -6.78,-7.26 -10.57,24.08 -1.45,-13.73 -34.59,-34.93 -62.99,-40.29 -154.65,1.8 -206.76,29.5z"/>
   <path class="fil2" d="M967.72 1801.87c44.12,36.13 13.79,22.05 74.88,26.81l2.27 -724.91c79.87,48.45 50.6,51.53 50.6,321.24 -0,134.26 -0.11,268.52 0.1,402.78 -2.65,50.91 8.07,14.56 -18.99,25.22 16.59,14.86 -28.72,21.54 37.97,13.81l0.3 -748.74 545.89 -307.47c21.69,13.36 36.39,21.24 55.98,35.15 39.05,27.72 23.85,10.58 32.36,34.96 52.33,-17.94 48.45,-31.13 111.92,-45.2 6.21,169.48 19.63,599.98 -6.67,748.99 50.67,-27.15 5.06,16.59 23.97,-34.94 17.72,-48.27 4.66,-696.03 1.37,-721.76l-130.11 -74.55c-74.31,-31.59 -56.97,-48.43 -129.15,-9.94l-22.47 -85.04 -3.98 20.54c-7.42,91.4 -112.82,120.27 -271.89,211.67 -69.69,40.04 -265.18,142.64 -307.85,187.31l-2.52 694.44c-17.12,62.79 15.91,17.52 -44,29.63z"/>
   <path class="fil3" d="M1349.43 587.58l-18.86 -3.25c-83.61,25.15 -439.65,257.27 -585.55,326.01l-4.37 709.12c-12.88,42.74 16.49,23.36 -40.8,24.37 17.11,19.36 2.69,9.06 29.04,24.11 17.94,10.24 24.13,9.14 42.77,16.43l-3.53 -742.25c97.65,46.96 63.31,96.24 63.3,357.9 0,56.53 18.02,357.81 -16.55,398.94 15.32,13.33 -4.72,21.82 27.52,3.83l3.87 -734.56c106.59,-57.43 483.22,-302.38 575.01,-307.19 12.36,-37.57 45.6,-47.17 89.44,-38.29l-26.33 -20.32c-85,-55.19 -99.31,-33.62 -134.96,-14.85z"/>
   <path class="fil4" d="M1490.77 720.22l-536.67 317.25c-10.8,104.29 -22.11,706.37 13.63,764.39 59.91,-12.11 26.89,33.16 44,-29.63l2.52 -694.44c42.67,-44.67 238.16,-147.27 307.85,-187.31 159.07,-91.4 264.47,-120.27 271.89,-211.67 -49.85,6.56 -15.2,-1.24 -50.69,15.59 -37.86,17.96 -14.42,10.3 -52.53,25.82z"/>
   <path class="fil5" d="M523.14 1531.18c-26.37,-74.89 -18.43,-635.34 -7.6,-743.34l49.34 28.74c14.63,92.82 4.34,270.5 4.34,372.32 0,64.81 -0.19,129.66 0.02,194.46 0.37,110.11 20.37,167.51 -25.03,167.17 17.06,12.7 -30.53,27.24 42.31,10.79l0.09 -751.16c143.67,-41.54 480.23,-310.82 573.2,-294.61 20.15,-52.1 31.98,-52.71 94.28,-49.93l-19.86 -14.8c-0.8,-0.54 -24.67,-16.02 -28.06,-17.88 -87.18,-47.93 -178.52,34.08 -338.35,128.86 -123.46,73.21 -242.17,141.21 -366.79,213.78l-4.15 718.87c9.4,60.97 -0.74,17.08 26.26,36.72z"/>
   <path class="fil6" d="M1215.15 581.54l-523.02 302.3c-6.36,120.54 -15.45,693.47 7.72,759.98 57.29,-1.01 27.92,18.37 40.8,-24.37l4.37 -709.12c145.9,-68.74 501.94,-300.85 585.55,-326.01l3.27 -57.67c-68.86,14.96 -62.42,23.88 -118.69,54.88z"/>
   <path class="fil7" d="M771.65 1684.37l43.22 14.59c34.57,-41.13 16.55,-342.41 16.55,-398.94 0.01,-261.66 34.35,-310.94 -63.3,-357.9l3.53 742.25z"/>
   <path class="fil8" d="M523.14 1531.18l21.07 19.35c45.4,0.34 25.4,-57.05 25.03,-167.17 -0.22,-64.81 -0.02,-129.65 -0.02,-194.46 0,-101.82 10.29,-279.5 -4.34,-372.32l-49.34 -28.74c-10.82,108 -18.77,668.45 7.6,743.34z"/>
   <path class="fil8" d="M1042.61 1828.68l33.98 24.33c27.07,-10.66 16.34,25.69 18.99,-25.22 -0.21,-134.25 -0.11,-268.52 -0.1,-402.78 0,-269.71 29.27,-272.79 -50.6,-321.24l-2.27 724.91z"/>
   <path class="fil9" d="M1327.1 1594.18c71.87,-12.11 183.2,-88.21 241.12,-123.07 131.25,-78.98 194.89,-82.06 187.42,-167.28 -52,14.25 -267.07,145.68 -344.15,189.93 -64.94,37.28 -80.34,28.65 -84.39,100.42z"/>
   <path class="fil9" d="M1326.98 1721.06c69.16,-9.9 274.91,-140.05 357.65,-188.94 49.07,-29 78.22,-33.14 70.06,-101.05 -60.87,19.81 -159.68,83.4 -226.68,123.4 -44.49,26.56 -77.18,46.48 -114.18,67.26 -60.79,34.13 -81.46,23.95 -86.85,99.33z"/>
   <path class="fil9" d="M1326.59 1457.2c64.39,-10.55 113.19,-51.23 171.75,-84.02 60.48,-33.87 122.72,-41.92 120.51,-127.85 -53.34,11.28 -184.43,96.17 -242.79,130.05 -44.88,26.06 -45.78,22.73 -49.48,81.82z"/>
   <path class="fil10" d="M1327.04 1330.64c68.06,-14.22 103.63,-47.83 168.98,-85.28 66.6,-38.16 122.62,-42.2 123.94,-126.85 -53.55,12.85 -118.43,58.5 -166.11,84.36 -64.37,34.91 -123.8,41.98 -126.81,127.76z"/>
   <path class="fil10" d="M6594.64 1188.91c-0.06,72.67 -7.71,109.84 39.68,134.95 39.29,-48 18.76,-189.28 13.61,-256.7 -29.07,3.52 -34.13,-11.05 -47.28,28.6 -5.49,16.54 -6,73.55 -6.02,93.15z"/>
   <path class="fil11" d="M1159.8 515.56l72.59 32.63c-3.89,3.58 -13.89,27.35 -17.24,33.35 56.27,-31 49.82,-39.92 118.69,-54.88l-3.27 57.67 18.86 3.25c9.34,-104.11 -25.9,-80.91 -95.34,-121.95 -62.3,-2.78 -74.13,-2.17 -94.28,49.93z"/>
   <path class="fil11" d="M1421.27 661.04c36.48,34.76 37.36,11.65 69.5,59.19 38.11,-15.52 14.67,-7.86 52.53,-25.82 35.48,-16.83 0.84,-9.04 50.69,-15.59l3.98 -20.54 -87.25 -35.52c-43.84,-8.89 -77.08,0.72 -89.44,38.29z"/>
   <path class="fil12" d="M5120.43 1323.86c24.19,-37.02 15.72,-57.34 12.87,-104.56 -34.97,7.94 -43.37,5.28 -51.13,42.62 -10.93,52.58 10.39,54.47 38.26,61.94z"/>
   <path class="fil13" d="M2651.55 1046.67c-15.5,14.63 -16,-9.48 -23.27,29.92 -13.06,-66.5 1.92,-5.48 -23.5,-32.58 5.72,32.32 -9.43,7.26 9.48,39.15 13.13,22.13 4.39,7.63 22.37,21.45l14.92 -57.94z"/>
  </g>
 </g>
</svg>
